<svg xmlns="http://www.w3.org/2000/svg" viewBox="0 0 32 32" width="32" height="32">
  <rect width="32" height="32" fill="#6fb96f"/>
  
  <circle cx="8" cy="8" r="4" fill="#62ac62" opacity="0.35"/>
  <circle cx="24" cy="6" r="3" fill="#5fa85f" opacity="0.3"/>
  <circle cx="4" cy="24" r="4" fill="#5fa85f" opacity="0.25"/>
  <circle cx="26" cy="20" r="5" fill="#62ac62" opacity="0.2"/>
  <ellipse cx="16" cy="16" rx="6" ry="4" fill="#5a9f5a" opacity="0.2"/>
  
  <g stroke="#4f984f" fill="none" opacity="0.7">
    <path d="M3,31 Q2,27 4,24" stroke-width="1.3"/>
    <path d="M5,30 Q4,27 5,25" stroke-width="0.9"/>
    <path d="M7,31 Q8,28 7,25" stroke-width="1.1"/>
  </g>
  
  <g stroke="#4f984f" fill="none" opacity="0.7">
    <path d="M13,30 Q12,26 14,23" stroke-width="1.3"/>
    <path d="M15,31 Q14,28 15,25" stroke-width="0.9"/>
    <path d="M17,30 Q18,27 17,24" stroke-width="1.1"/>
  </g>
  
  <g stroke="#4f984f" fill="none" opacity="0.7">
    <path d="M23,31 Q22,27 24,24" stroke-width="1.3"/>
    <path d="M25,30 Q24,27 25,25" stroke-width="0.9"/>
    <path d="M27,31 Q28,28 27,25" stroke-width="1.1"/>
  </g>
  
  <g stroke="#7fc97f" fill="none" opacity="0.5">
    <path d="M9,20 Q8,17 10,14" stroke-width="0.9"/>
    <path d="M11,19 Q12,17 11,15" stroke-width="0.7"/>
  </g>
  
  <g stroke="#7fc97f" fill="none" opacity="0.5">
    <path d="M21,16 Q20,13 22,10" stroke-width="0.9"/>
    <path d="M23,15 Q24,13 23,11" stroke-width="0.7"/>
  </g>
  
  <g stroke="#72bc72" fill="none" opacity="0.4">
    <path d="M29,12 Q28,10 30,8" stroke-width="0.7"/>
    <path d="M2,14 Q1,12 3,10" stroke-width="0.7"/>
  </g>
  
  <circle cx="6" cy="6" r="1" fill="#5fa85f" opacity="0.5"/>
  <circle cx="26" cy="14" r="0.9" fill="#7fc97f" opacity="0.4"/>
  <circle cx="14" cy="10" r="0.7" fill="#62ac62" opacity="0.45"/>
  <circle cx="28" cy="28" r="0.8" fill="#5fa85f" opacity="0.4"/>
  <circle cx="4" cy="18" r="0.9" fill="#7fc97f" opacity="0.35"/>
  <circle cx="18" cy="22" r="0.6" fill="#62ac62" opacity="0.4"/>
  
  <g opacity="0.35">
    <circle cx="10" cy="28" r="1.2" fill="#89d189"/>
    <ellipse cx="9" cy="27.3" rx="0.5" ry="0.7" fill="#62ac62"/>
    <ellipse cx="11" cy="27.3" rx="0.5" ry="0.7" fill="#62ac62"/>
    <ellipse cx="10" cy="26.5" rx="0.5" ry="0.7" fill="#62ac62"/>
  </g>
</svg>
