<svg xmlns="http://www.w3.org/2000/svg" viewBox="0 0 32 32" width="32" height="32">
  <rect width="32" height="32" fill="#7fc97f"/>
  
  <circle cx="5" cy="10" r="3" fill="#72bc72" opacity="0.3"/>
  <circle cx="20" cy="5" r="4" fill="#89d189" opacity="0.2"/>
  <circle cx="28" cy="22" r="3" fill="#72bc72" opacity="0.25"/>
  <circle cx="12" cy="26" r="4" fill="#6fb96f" opacity="0.2"/>
  
  <g stroke="#5fa85f" fill="none" opacity="0.6">
    <path d="M4,30 Q3,26 5,24" stroke-width="1.2"/>
    <path d="M6,31 Q5,28 6,26" stroke-width="0.8"/>
    <path d="M8,30 Q9,27 8,25" stroke-width="1"/>
  </g>
  
  <g stroke="#5fa85f" fill="none" opacity="0.6">
    <path d="M14,31 Q13,27 15,24" stroke-width="1.2"/>
    <path d="M16,30 Q15,27 16,25" stroke-width="0.8"/>
    <path d="M18,31 Q19,28 18,26" stroke-width="1"/>
  </g>
  
  <g stroke="#5fa85f" fill="none" opacity="0.6">
    <path d="M24,30 Q23,26 25,23" stroke-width="1.2"/>
    <path d="M26,31 Q25,28 26,26" stroke-width="0.8"/>
    <path d="M28,30 Q29,27 28,25" stroke-width="1"/>
  </g>
  
  <g stroke="#89d189" fill="none" opacity="0.5">
    <path d="M10,18 Q9,15 11,13" stroke-width="0.8"/>
    <path d="M12,17 Q13,15 12,13" stroke-width="0.6"/>
  </g>
  
  <g stroke="#89d189" fill="none" opacity="0.5">
    <path d="M22,14 Q21,11 23,9" stroke-width="0.8"/>
    <path d="M24,13 Q25,11 24,9" stroke-width="0.6"/>
  </g>
  
  <circle cx="7" cy="8" r="1" fill="#6fb96f" opacity="0.4"/>
  <circle cx="25" cy="18" r="0.8" fill="#89d189" opacity="0.35"/>
  <circle cx="15" cy="12" r="0.6" fill="#72bc72" opacity="0.4"/>
  <circle cx="28" cy="8" r="0.7" fill="#6fb96f" opacity="0.35"/>
  <circle cx="3" cy="20" r="0.8" fill="#89d189" opacity="0.3"/>
  
  <g opacity="0.4">
    <circle cx="20" cy="28" r="1" fill="#98e698"/>
    <ellipse cx="19" cy="27.5" rx="0.4" ry="0.6" fill="#72bc72"/>
    <ellipse cx="21" cy="27.5" rx="0.4" ry="0.6" fill="#72bc72"/>
    <ellipse cx="20" cy="26.8" rx="0.4" ry="0.6" fill="#72bc72"/>
  </g>
</svg>
