<svg xmlns="http://www.w3.org/2000/svg" viewBox="0 0 32 32" width="32" height="32">
  <!-- Rock base -->
  <rect width="32" height="32" fill="#888888"/>
  <!-- Rock texture and cracks -->
  <polygon points="5,5 12,4 14,10 8,12 5,8" fill="#999999" opacity="0.7"/>
  <polygon points="18,6 26,5 28,11 22,14 18,10" fill="#999999" opacity="0.7"/>
  <polygon points="8,18 15,16 16,24 10,26 8,22" fill="#777777" opacity="0.6"/>
  <polygon points="20,20 28,18 30,26 24,28 20,24" fill="#999999" opacity="0.6"/>
  <!-- Cracks -->
  <path d="M8,2 L6,10 L10,14" stroke="#666666" stroke-width="0.8" fill="none" opacity="0.6"/>
  <path d="M22,8 L20,16 L24,20" stroke="#666666" stroke-width="0.8" fill="none" opacity="0.6"/>
  <path d="M14,18 L12,26 L16,30" stroke="#666666" stroke-width="0.8" fill="none" opacity="0.6"/>
  <!-- Highlights -->
  <circle cx="10" cy="8" r="1" fill="#aaaaaa" opacity="0.3"/>
  <circle cx="24" cy="12" r="1" fill="#aaaaaa" opacity="0.3"/>
  <circle cx="16" cy="22" r="0.8" fill="#aaaaaa" opacity="0.3"/>
</svg>