<svg xmlns="http://www.w3.org/2000/svg" viewBox="0 0 32 32" width="32" height="32">
  <!-- Outer glow effect -->
  <circle cx="16" cy="16" r="14" fill="#ffeb3b" opacity="0.2"/>
  <circle cx="16" cy="16" r="10" fill="#ffeb3b" opacity="0.3"/>
  
  <!-- Star shape -->
  <path d="M16,2 L19.5,11 L29,11 L21.5,17 L24.5,26 L16,20 L7.5,26 L10.5,17 L3,11 L12.5,11 Z" 
        fill="#ffc107" stroke="#ff9800" stroke-width="1"/>
  
  <!-- Inner star highlight -->
  <path d="M16,6 L18,12 L24,12 L19,16 L21,22 L16,18 L11,22 L13,16 L8,12 L14,12 Z" 
        fill="#ffeb3b" opacity="0.8"/>
  
  <!-- Sparkle effects -->
  <circle cx="10" cy="8" r="1" fill="#ffffff" opacity="0.8"/>
  <circle cx="22" cy="10" r="1" fill="#ffffff" opacity="0.8"/>
  <circle cx="20" cy="22" r="0.8" fill="#ffffff" opacity="0.6"/>
  <circle cx="12" cy="20" r="0.8" fill="#ffffff" opacity="0.6"/>
  
  <!-- Center shine -->
  <circle cx="16" cy="14" r="2" fill="#ffffff" opacity="0.4"/>
</svg>