<svg xmlns="http://www.w3.org/2000/svg" viewBox="0 0 64 64">
  <defs>
    <linearGradient id="woodBody" x1="0%" y1="0%" x2="0%" y2="100%">
      <stop offset="0%" style="stop-color:#A0522D"/>
      <stop offset="30%" style="stop-color:#8B4513"/>
      <stop offset="70%" style="stop-color:#6B3410"/>
      <stop offset="100%" style="stop-color:#5D2E0C"/>
    </linearGradient>
    <radialGradient id="endRing" cx="50%" cy="50%" r="50%">
      <stop offset="0%" style="stop-color:#D2B48C"/>
      <stop offset="30%" style="stop-color:#C4A574"/>
      <stop offset="50%" style="stop-color:#A0522D"/>
      <stop offset="70%" style="stop-color:#8B4513"/>
      <stop offset="100%" style="stop-color:#5D2E0C"/>
    </radialGradient>
  </defs>
  
  <ellipse cx="10" cy="32" rx="6" ry="12" fill="url(#endRing)"/>
  <ellipse cx="10" cy="32" rx="4" ry="8" fill="#C4A574" opacity="0.6"/>
  <ellipse cx="10" cy="32" rx="2" ry="4" fill="#D2B48C" opacity="0.8"/>
  <circle cx="10" cy="32" r="1" fill="#5D2E0C"/>
  
  <rect x="10" y="20" width="44" height="24" fill="url(#woodBody)"/>
  
  <path d="M12,24 Q32,22 52,24" stroke="#6B3410" stroke-width="1" fill="none" opacity="0.5"/>
  <path d="M12,28 Q28,26 52,28" stroke="#5D2E0C" stroke-width="0.8" fill="none" opacity="0.4"/>
  <path d="M12,32 Q38,30 52,32" stroke="#6B3410" stroke-width="1" fill="none" opacity="0.5"/>
  <path d="M12,36 Q24,34 52,36" stroke="#5D2E0C" stroke-width="0.8" fill="none" opacity="0.4"/>
  <path d="M12,40 Q36,38 52,40" stroke="#6B3410" stroke-width="1" fill="none" opacity="0.5"/>
  
  <rect x="10" y="20" width="44" height="6" fill="white" opacity="0.15"/>
  <rect x="10" y="38" width="44" height="6" fill="black" opacity="0.1"/>
  
  <ellipse cx="54" cy="32" rx="6" ry="12" fill="url(#endRing)"/>
  <ellipse cx="54" cy="32" rx="4" ry="8" fill="#C4A574" opacity="0.6"/>
  <ellipse cx="54" cy="32" rx="2" ry="4" fill="#D2B48C" opacity="0.8"/>
  <circle cx="54" cy="32" r="1" fill="#5D2E0C"/>
  
  <path d="M16,26 L18,22" stroke="#4A2508" stroke-width="1" opacity="0.3"/>
  <path d="M30,42 L32,44" stroke="#4A2508" stroke-width="1" opacity="0.3"/>
  <circle cx="24" cy="30" r="1.5" fill="#4A2508" opacity="0.2"/>
  <circle cx="40" cy="34" r="1" fill="#4A2508" opacity="0.2"/>
</svg>
