<svg xmlns="http://www.w3.org/2000/svg" viewBox="0 0 192 224" width="192" height="224" shape-rendering="crispEdges">
  <defs>
    <linearGradient id="mountainBase" x1="0%" y1="0%" x2="0%" y2="100%">
      <stop offset="0%" style="stop-color:#8a9a7c"/>
      <stop offset="100%" style="stop-color:#6b7a5e"/>
    </linearGradient>
    <linearGradient id="rockFace" x1="0%" y1="0%" x2="100%" y2="100%">
      <stop offset="0%" style="stop-color:#9a9a8a"/>
      <stop offset="100%" style="stop-color:#7a7a6a"/>
    </linearGradient>
    <linearGradient id="peakGradient" x1="0%" y1="0%" x2="0%" y2="100%">
      <stop offset="0%" style="stop-color:#a8b8a0"/>
      <stop offset="100%" style="stop-color:#8a9a7c"/>
    </linearGradient>
  </defs>
  
  <!-- Base terrain - grassy hill foundation -->
  <ellipse cx="96" cy="180" rx="88" ry="40" fill="url(#mountainBase)" opacity="0.9"/>
  <ellipse cx="96" cy="175" rx="80" ry="35" fill="#7a8b6e" opacity="0.8"/>
  
  <!-- Lower rocky slopes -->
  <path d="M30 170 Q50 130 80 110 Q96 100 112 110 Q142 130 162 170 Q150 180 96 185 Q42 180 30 170" fill="url(#rockFace)" opacity="0.85"/>
  
  <!-- Mid-level terrain with rocky outcrops -->
  <path d="M45 150 Q60 110 85 85 Q96 75 107 85 Q132 110 147 150 Q130 160 96 165 Q62 160 45 150" fill="#8a8a7a"/>
  
  <!-- Upper rocky formation -->
  <path d="M55 130 Q70 90 90 65 Q96 55 102 65 Q122 90 137 130 Q120 140 96 145 Q72 140 55 130" fill="#9a9a8a"/>
  
  <!-- Peak area -->
  <path d="M70 105 Q80 70 93 50 Q96 45 99 50 Q112 70 122 105 Q110 115 96 118 Q82 115 70 105" fill="url(#peakGradient)"/>
  
  <!-- Rocky details - left side -->
  <ellipse cx="50" cy="155" rx="12" ry="8" fill="#7a7a6a" opacity="0.7"/>
  <ellipse cx="38" cy="168" rx="8" ry="5" fill="#6a6a5a" opacity="0.6"/>
  
  <!-- Rocky details - right side -->
  <ellipse cx="142" cy="155" rx="12" ry="8" fill="#7a7a6a" opacity="0.7"/>
  <ellipse cx="154" cy="168" rx="8" ry="5" fill="#6a6a5a" opacity="0.6"/>
  
  <!-- Grass patches on slopes -->
  <ellipse cx="45" cy="172" rx="10" ry="6" fill="#6b8b5a" opacity="0.6"/>
  <ellipse cx="147" cy="172" rx="10" ry="6" fill="#6b8b5a" opacity="0.6"/>
  <ellipse cx="70" cy="165" rx="8" ry="4" fill="#5a7a4a" opacity="0.5"/>
  <ellipse cx="122" cy="165" rx="8" ry="4" fill="#5a7a4a" opacity="0.5"/>
  
  <!-- Small rocks scattered -->
  <circle cx="60" cy="175" r="3" fill="#8a8a7a" opacity="0.6"/>
  <circle cx="132" cy="175" r="3" fill="#8a8a7a" opacity="0.6"/>
  <circle cx="80" cy="178" r="2" fill="#7a7a6a" opacity="0.5"/>
  <circle cx="112" cy="178" r="2" fill="#7a7a6a" opacity="0.5"/>
  
  <!-- Highlight details on rocks -->
  <ellipse cx="85" cy="95" rx="6" ry="4" fill="#b0b0a0" opacity="0.4"/>
  <ellipse cx="107" cy="95" rx="6" ry="4" fill="#b0b0a0" opacity="0.4"/>
  <ellipse cx="96" cy="60" rx="4" ry="3" fill="#c0c0b0" opacity="0.3"/>
  
  <!-- Shadow details -->
  <ellipse cx="75" cy="125" rx="8" ry="5" fill="#5a5a4a" opacity="0.3"/>
  <ellipse cx="117" cy="125" rx="8" ry="5" fill="#5a5a4a" opacity="0.3"/>
  
  <!-- Subtle terrain texture lines -->
  <path d="M55 145 Q65 140 75 145" stroke="#6a7a5a" stroke-width="1" fill="none" opacity="0.4"/>
  <path d="M117 145 Q127 140 137 145" stroke="#6a7a5a" stroke-width="1" fill="none" opacity="0.4"/>
  <path d="M70 120 Q80 115 90 120" stroke="#7a7a6a" stroke-width="1" fill="none" opacity="0.3"/>
  <path d="M102 120 Q112 115 122 120" stroke="#7a7a6a" stroke-width="1" fill="none" opacity="0.3"/>
</svg>
