<svg xmlns="http://www.w3.org/2000/svg" viewBox="0 0 96 96" width="96" height="96">
  <!-- 3/4 view RPG-style house - roof from above + front wall visible -->
  <!-- Slight rounded corners for softer look -->
  
  <!-- Shadow -->
  <rect x="8" y="88" width="84" height="8" rx="2" fill="rgba(0,0,0,0.15)"/>
  
  <!-- FRONT WALL (wooden planks) - takes up bottom half -->
  <rect x="8" y="48" width="80" height="40" rx="2" fill="#9B7050"/>
  <!-- Wood plank lines -->
  <rect x="10" y="52" width="76" height="2" fill="#7B5030"/>
  <rect x="10" y="60" width="76" height="2" fill="#7B5030"/>
  <rect x="10" y="68" width="76" height="2" fill="#7B5030"/>
  <rect x="10" y="76" width="76" height="2" fill="#7B5030"/>
  <rect x="10" y="84" width="76" height="2" fill="#7B5030"/>
  <!-- Vertical plank dividers -->
  <rect x="28" y="50" width="2" height="36" fill="#8B6040"/>
  <rect x="48" y="50" width="2" height="36" fill="#8B6040"/>
  <rect x="68" y="50" width="2" height="36" fill="#8B6040"/>
  <!-- Wall edge highlights -->
  <rect x="8" y="48" width="4" height="40" rx="2" fill="#AB8060"/>
  <rect x="84" y="48" width="4" height="40" rx="2" fill="#6B4020"/>
  
  <!-- DOOR (center) -->
  <rect x="36" y="56" width="24" height="32" rx="2" fill="#5A3818"/>
  <rect x="38" y="58" width="20" height="28" rx="1" fill="#6A4828"/>
  <rect x="38" y="58" width="9" height="28" rx="1" fill="#7A5838"/>
  <!-- Door frame -->
  <rect x="36" y="56" width="24" height="4" rx="1" fill="#4A2808"/>
  <rect x="36" y="56" width="4" height="32" rx="1" fill="#4A2808"/>
  <rect x="56" y="56" width="4" height="32" rx="1" fill="#4A2808"/>
  <!-- Door handle -->
  <ellipse cx="54" cy="74" rx="2" ry="2" fill="#D4A040"/>
  
  <!-- LEFT WINDOW -->
  <rect x="12" y="60" width="16" height="16" rx="2" fill="#3A2A1A"/>
  <rect x="14" y="62" width="12" height="12" rx="1" fill="#70A8C8"/>
  <rect x="19" y="62" width="2" height="12" fill="#3A2A1A"/>
  <rect x="14" y="67" width="12" height="2" fill="#3A2A1A"/>
  
  <!-- RIGHT WINDOW -->
  <rect x="68" y="60" width="16" height="16" rx="2" fill="#3A2A1A"/>
  <rect x="70" y="62" width="12" height="12" rx="1" fill="#70A8C8"/>
  <rect x="75" y="62" width="2" height="12" fill="#3A2A1A"/>
  <rect x="70" y="67" width="12" height="2" fill="#3A2A1A"/>
  
  <!-- ROOF (slanted, visible from above) -->
  <!-- Main roof surface with rounded top corners -->
  <rect x="4" y="12" width="88" height="40" rx="3" fill="#8B6848"/>
  <!-- Roof shingle rows -->
  <rect x="6" y="14" width="84" height="5" rx="2" fill="#9B7858"/>
  <rect x="6" y="21" width="84" height="2" fill="#6B4828"/>
  <rect x="6" y="29" width="84" height="2" fill="#6B4828"/>
  <rect x="6" y="37" width="84" height="2" fill="#6B4828"/>
  <rect x="6" y="45" width="84" height="2" fill="#6B4828"/>
  <!-- Roof overhang/eave -->
  <rect x="4" y="48" width="88" height="4" rx="1" fill="#5B3818"/>
  <!-- Roof ridge at top -->
  <rect x="4" y="8" width="88" height="6" rx="2" fill="#6B4828"/>
  <rect x="6" y="10" width="84" height="2" fill="#5B3818"/>
  
  <!-- Roof side edge highlights -->
  <rect x="4" y="14" width="4" height="36" rx="1" fill="#AB8868"/>
  <rect x="88" y="14" width="4" height="36" rx="1" fill="#5B3818"/>
  
  <!-- CHIMNEY with rounded edges -->
  <rect x="68" y="4" width="16" height="20" rx="2" fill="#606060"/>
  <rect x="66" y="0" width="20" height="6" rx="2" fill="#505050"/>
  <rect x="70" y="6" width="12" height="4" rx="1" fill="#707070"/>
</svg>
