<svg xmlns="http://www.w3.org/2000/svg" viewBox="0 0 96 96" width="96" height="96" shape-rendering="crispEdges">
  <!-- 3/4 view RPG-style house - roof from above + front wall visible -->
  
  <!-- Shadow -->
  <rect x="8" y="88" width="84" height="8" fill="rgba(0,0,0,0.15)"/>
  
  <!-- FRONT WALL (wooden planks) - takes up bottom half -->
  <rect x="8" y="48" width="80" height="40" fill="#9B7050"/>
  <!-- Wood plank lines -->
  <rect x="8" y="52" width="80" height="2" fill="#7B5030"/>
  <rect x="8" y="60" width="80" height="2" fill="#7B5030"/>
  <rect x="8" y="68" width="80" height="2" fill="#7B5030"/>
  <rect x="8" y="76" width="80" height="2" fill="#7B5030"/>
  <rect x="8" y="84" width="80" height="2" fill="#7B5030"/>
  <!-- Vertical plank dividers -->
  <rect x="28" y="48" width="2" height="40" fill="#8B6040"/>
  <rect x="48" y="48" width="2" height="40" fill="#8B6040"/>
  <rect x="68" y="48" width="2" height="40" fill="#8B6040"/>
  <!-- Wall edge shadows -->
  <rect x="8" y="48" width="4" height="40" fill="#AB8060"/>
  <rect x="84" y="48" width="4" height="40" fill="#6B4020"/>
  
  <!-- DOOR (center) -->
  <rect x="36" y="56" width="24" height="32" fill="#5A3818"/>
  <rect x="38" y="58" width="20" height="28" fill="#6A4828"/>
  <rect x="38" y="58" width="9" height="28" fill="#7A5838"/>
  <!-- Door frame -->
  <rect x="36" y="56" width="24" height="4" fill="#4A2808"/>
  <rect x="36" y="56" width="4" height="32" fill="#4A2808"/>
  <rect x="56" y="56" width="4" height="32" fill="#4A2808"/>
  <!-- Door handle -->
  <rect x="52" y="72" width="4" height="4" fill="#D4A040"/>
  
  <!-- LEFT WINDOW -->
  <rect x="12" y="60" width="16" height="16" fill="#3A2A1A"/>
  <rect x="14" y="62" width="12" height="12" fill="#70A8C8"/>
  <rect x="19" y="62" width="2" height="12" fill="#3A2A1A"/>
  <rect x="14" y="67" width="12" height="2" fill="#3A2A1A"/>
  
  <!-- RIGHT WINDOW -->
  <rect x="68" y="60" width="16" height="16" fill="#3A2A1A"/>
  <rect x="70" y="62" width="12" height="12" fill="#70A8C8"/>
  <rect x="75" y="62" width="2" height="12" fill="#3A2A1A"/>
  <rect x="70" y="67" width="12" height="2" fill="#3A2A1A"/>
  
  <!-- ROOF (slanted, visible from above) -->
  <!-- Main roof surface -->
  <rect x="4" y="12" width="88" height="40" fill="#8B6848"/>
  <!-- Roof shingle rows -->
  <rect x="4" y="12" width="88" height="6" fill="#9B7858"/>
  <rect x="4" y="20" width="88" height="2" fill="#6B4828"/>
  <rect x="4" y="28" width="88" height="2" fill="#6B4828"/>
  <rect x="4" y="36" width="88" height="2" fill="#6B4828"/>
  <rect x="4" y="44" width="88" height="2" fill="#6B4828"/>
  <!-- Roof overhang/eave -->
  <rect x="4" y="48" width="88" height="4" fill="#5B3818"/>
  <!-- Roof ridge at top -->
  <rect x="4" y="8" width="88" height="6" fill="#6B4828"/>
  <rect x="4" y="10" width="88" height="2" fill="#5B3818"/>
  
  <!-- Roof side edges -->
  <rect x="4" y="12" width="4" height="40" fill="#AB8868"/>
  <rect x="88" y="12" width="4" height="40" fill="#5B3818"/>
  
  <!-- CHIMNEY -->
  <rect x="68" y="4" width="16" height="20" fill="#606060"/>
  <rect x="66" y="0" width="20" height="6" fill="#505050"/>
  <rect x="70" y="6" width="12" height="4" fill="#707070"/>
</svg>
