<svg xmlns="http://www.w3.org/2000/svg" viewBox="0 0 32 32" width="32" height="32">
  <!-- Transparent background -->
  
  <!-- Star shadow -->
  <ellipse cx="16" cy="26" rx="5" ry="1.5" fill="#000000" opacity="0.15"/>
  
  <!-- Outer star (5-pointed) -->
  <path d="M16,7 L18.5,14 L26,14 L20.5,18.5 L22.5,25.5 L16,21 L9.5,25.5 L11.5,18.5 L6,14 L13.5,14 Z" 
        fill="#9c27b0"/>
  
  <!-- Inner star for depth -->
  <path d="M16,10 L17.5,14.5 L22,14.5 L18.5,17.5 L19.5,22 L16,19 L12.5,22 L13.5,17.5 L9.5,14.5 L14.5,14.5 Z" 
        fill="#ba68c8" opacity="0.9"/>
  
  <!-- Center highlight -->
  <circle cx="16" cy="16" r="2.5" fill="#ce93d8" opacity="0.7"/>
  
  <!-- Sparkle points -->
  <circle cx="13" cy="13" r="1" fill="#ffffff" opacity="0.6"/>
  <circle cx="19" cy="14" r="0.8" fill="#ffffff" opacity="0.5"/>
  <circle cx="16" cy="19" r="0.6" fill="#ffffff" opacity="0.4"/>
  
  <!-- Extra sparkles around -->
  <circle cx="10" cy="11" r="0.5" fill="#e1bee7" opacity="0.8"/>
  <circle cx="22" cy="12" r="0.5" fill="#e1bee7" opacity="0.8"/>
  <circle cx="20" cy="22" r="0.4" fill="#e1bee7" opacity="0.7"/>
  <circle cx="12" cy="21" r="0.4" fill="#e1bee7" opacity="0.7"/>
</svg>